<?xml version="1.0" encoding="utf-8"?>
<!-- Generator: Adobe Illustrator 19.0.0, SVG Export Plug-In . SVG Version: 6.00 Build 0)  -->
<svg version="1.1" id="Default" xmlns="http://www.w3.org/2000/svg" xmlns:xlink="http://www.w3.org/1999/xlink" x="0px" y="0px"
	 viewBox="0 0 100 100" style="enable-background:new 0 0 100 100;" xml:space="preserve">
<path id="Key" d="M82.2,10.9C79.6,7.6,75.5,5.5,71,5.5h-1H30h-1c-4.4,0-8.4,2.1-11,5.3C8.9,18.4,4.5,27.3,4.5,38v36
	c0,10.4,7.7,18.5,17.5,18.5h56c9.8,0,17.5-8.1,17.5-18.5V38C95.5,27.3,91.1,18.5,82.2,10.9z M29,8.5h1l39.2,0.9
	c7.5,0.3,11.7,4.4,12.1,11.9l1.1,32.4c-0.2,6-6.2,11.9-12.3,11.9l-36.2-1.9c-7.5-0.3-13.7-6.4-14.1-13.9l-2.1-29.9
	C17.8,13.6,22.9,8.5,29,8.5z M78,89.5H22c-8.1,0-14.5-6.8-14.5-15.5V38c0-7.5,2.4-14.1,7.3-19.9c-0.1,0.6-0.1,1.1-0.1,1.7v33.4v0.1
	c0,0.2,0,0.3,0,0.5c0.4,7.6,7.6,14.7,15.3,14.7h40c3.9,0,7.6-1.8,10.4-4.5c5.7,6.7,7.6,17.4,8,20.8C85.9,87.7,82.2,89.5,78,89.5z"/>
<path id="Char" d="M26.6,29.3c0.7,0,1.3-0.6,1.3-1.3v-2l1.2-1.2l3.4,4.1c0.3,0.3,0.6,0.5,1,0.5c0.3,0,0.6-0.1,0.8-0.3
	c0.6-0.4,0.6-1.2,0.2-1.8L31,23l3.5-3.4c0.5-0.5,0.5-1.3,0-1.8s-1.3-0.5-1.8,0L28,22.5v-8c0-0.7-0.6-1.3-1.3-1.3s-1.3,0.6-1.3,1.3
	v13.6C25.4,28.8,25.9,29.3,26.6,29.3z"/>
</svg>
