<?xml version="1.0" encoding="utf-8"?>
<!-- Generator: Adobe Illustrator 19.0.0, SVG Export Plug-In . SVG Version: 6.00 Build 0)  -->
<svg version="1.1" id="Blurred_Notif" xmlns="http://www.w3.org/2000/svg" xmlns:xlink="http://www.w3.org/1999/xlink" x="0px"
	 y="0px" viewBox="0 0 100 100" style="enable-background:new 0 0 100 100;" xml:space="preserve">
<path id="Key" d="M82.2,11C79.6,7.6,75.5,5.5,71,5.5h-1H30h-1c-4.4,0-8.4,2.1-11,5.3C8.9,18.4,4.5,27.3,4.5,38v36
	c0,10.4,7.7,18.5,17.5,18.5h28h28c9.8,0,17.5-8.1,17.5-18.5V38C95.5,27.4,91.1,18.5,82.2,11z M70,65.5l-39.2-0.9
	c-7.5-0.3-11.7-4.4-12.1-11.9l-1.1-32.9C17.8,13.6,22.9,8.5,29,8.5h1l39.2,0.9c7.5,0.3,11.7,4.4,12.1,11.9l1.1,32.4
	C82.1,59.7,76.1,65.5,70,65.5z M92.5,74c0,3.4-1,6.5-2.7,9c-0.7-4.6-2.8-14-8.3-20.3c2.1-2.4,3.4-5.4,3.7-8.6l0,0v-0.9V20.8v-1
	c0-0.6,0-1.1-0.1-1.7c4.9,5.8,7.3,12.4,7.3,19.9L92.5,74L92.5,74z"/>
<path id="Char" d="M25.4,23.8v-9.3c0-0.7,0.6-1.3,1.3-1.3c0.7,0,1.2,0.6,1.2,1.3v9.3c0,0.7-0.6,1.3-1.2,1.3
	C26,25.1,25.4,24.5,25.4,23.8z M26.7,29.3c-0.7,0-1.3-0.6-1.3-1.3v-0.5c0-0.7,0.6-1.3,1.3-1.3c0.7,0,1.2,0.6,1.2,1.3V28
	C27.9,28.8,27.3,29.3,26.7,29.3z"/>
</svg>
