<?xml version="1.0" encoding="utf-8"?>
<!-- Generator: Adobe Illustrator 19.0.0, SVG Export Plug-In . SVG Version: 6.00 Build 0)  -->
<svg version="1.1" id="Blurred" xmlns="http://www.w3.org/2000/svg" xmlns:xlink="http://www.w3.org/1999/xlink" x="0px" y="0px"
	 viewBox="0 0 100 100" style="enable-background:new 0 0 100 100;" xml:space="preserve">
<path id="Key" d="M82.2,11C79.6,7.6,75.5,5.5,71,5.5h-1H30h-1c-4.4,0-8.4,2.1-11,5.3C8.9,18.4,4.5,27.3,4.5,38v36
	c0,10.4,7.7,18.5,17.5,18.5h28h28c9.8,0,17.5-8.1,17.5-18.5V38C95.5,27.4,91.1,18.5,82.2,11z M70,65.5l-39.2-0.9
	c-7.5-0.3-11.7-4.4-12.1-11.9l-1.1-32.9C17.8,13.6,22.9,8.5,29,8.5h1l39.2,0.9c7.5,0.3,11.7,4.4,12.1,11.9l1.1,32.4
	C82.1,59.7,76.1,65.5,70,65.5z M92.5,74c0,3.4-1,6.5-2.7,9c-0.7-4.6-2.8-14-8.3-20.3c2.1-2.4,3.4-5.4,3.7-8.6l0,0v-0.9V20.8v-1
	c0-0.6,0-1.1-0.1-1.7c4.9,5.8,7.3,12.4,7.3,19.9V74z"/>
<path id="Char" d="M25.4,28.1V14.5c0-0.7,0.6-1.3,1.3-1.3s1.3,0.6,1.3,1.3v8l4.7-4.7c0.5-0.5,1.3-0.5,1.8,0s0.5,1.3,0,1.8L31,23
	l3.5,4.3c0.4,0.6,0.4,1.4-0.2,1.8c-0.2,0.2-0.5,0.3-0.8,0.3c-0.4,0-0.7-0.2-1-0.5l-3.4-4.1L27.9,26v2c0,0.7-0.6,1.3-1.3,1.3
	S25.4,28.8,25.4,28.1z"/>
</svg>
